<svg xmlns="http://www.w3.org/2000/svg" width="60" height="40" viewBox="0 0 60 40">
  <g id="American_Express" data-name="American Express" transform="translate(-40 -52)">
    <g id="frame" transform="translate(40 52)">
      <g id="frame-2" data-name="frame" fill="#fff" stroke="#ccc" stroke-width="0.5">
        <rect width="60" height="40" rx="4" stroke="none"/>
        <rect x="0.25" y="0.25" width="59.5" height="39.5" rx="3.75" fill="none"/>
      </g>
    </g>
    <g id="Logo-American-Express" transform="translate(-89.495 -2.465)">
      <rect id="frame-3" data-name="frame" width="45.714" height="13.714" transform="translate(136.639 67.608)" fill="red" opacity="0"/>
      <g id="amex" transform="translate(143.496 58.465)">
        <path id="trazado" d="M0,0V32H32V0Z" fill="#006fcf"/>
        <g id="American_Express-2" data-name="American Express" transform="translate(0 9.904)">
          <path id="Trazado_15764" data-name="Trazado 15764" d="M28.032,2.272h2.432V-3.3H27.9v.9l-.576-.9h-2.24v1.152L24.576-3.3H20.864a1.409,1.409,0,0,0-.512.064.91.91,0,0,0-.384.128c-.128.064-.192.064-.32.128a1.4,1.4,0,0,0-.32.192v-.448H7.3l-.32.96-.32-.96H3.84V-2.08L3.328-3.36h-2.3L0-.928v3.2H1.6l.32-.832H2.5l.32.832H15.3V1.44l.64.832h3.456V1.824a.485.485,0,0,0,.256.128c.064.064.192.064.256.128a.812.812,0,0,0,.384.064,1.772,1.772,0,0,0,.576.064h2.048l.32-.832h.576l.32.832H27.52V1.44ZM32,9.44V4.192H12.16l-.512.7-.512-.7H5.44V9.76h5.7l.512-.7.512.7h3.584V8.544H15.68A3.726,3.726,0,0,0,16.9,8.352V9.76h2.5V8.928l.64.832H30.72a3.243,3.243,0,0,0,.832-.128A3.121,3.121,0,0,0,32,9.44Z" transform="translate(0 3.36)" fill="#fff"/>
          <path id="Trazado_15765" data-name="Trazado 15765" d="M23.264-3.584h-1.92v.768h1.92a1.161,1.161,0,0,0,1.28-1.216A1.027,1.027,0,0,0,23.392-5.12h-.9a.369.369,0,0,1-.384-.384.339.339,0,0,1,.384-.384H24.16l.32-.768H22.56A1.147,1.147,0,0,0,21.28-5.5a1.027,1.027,0,0,0,1.152,1.088h.9a.369.369,0,0,1,.384.384C23.648-3.776,23.52-3.584,23.264-3.584Zm-3.584,0H17.76v.768h1.92a1.161,1.161,0,0,0,1.28-1.216A1.027,1.027,0,0,0,19.808-5.12h-.9a.369.369,0,0,1-.384-.384.339.339,0,0,1,.384-.384h1.664l.32-.7h-1.92A1.147,1.147,0,0,0,17.7-5.44a1.027,1.027,0,0,0,1.152,1.088h.9a.369.369,0,0,1,.384.384A.479.479,0,0,1,19.68-3.584Zm-2.5-2.24v-.768H14.176v3.776h3.008v-.768H15.072v-.768H17.12V-5.12H15.072v-.7Zm-4.992,0a.456.456,0,0,1,.512.448.456.456,0,0,1-.512.448H11.1v-.9ZM11.1-4.224h.448L12.7-2.88h1.152l-1.28-1.408A1.182,1.182,0,0,0,13.6-5.5,1.194,1.194,0,0,0,12.32-6.72H10.272v3.776h.9v-1.28ZM8.8-5.376a.437.437,0,0,1-.448.448H7.264v-.9H8.352A.437.437,0,0,1,8.8-5.376ZM6.3-6.592v3.776h.9V-4.1H8.352A1.227,1.227,0,0,0,9.7-5.376a1.209,1.209,0,0,0-1.28-1.28H6.3ZM5.024-2.816H6.176L4.64-4.736,6.112-6.592H5.024l-.9,1.152-.96-1.152H2.08L3.616-4.736,2.08-2.816H3.168l.9-1.216ZM1.888-5.824v-.768H-1.12v3.776H1.888v-.768H-.224v-.768H1.824V-5.12H-.224v-.7Z" transform="translate(7.456 15.055)" fill="#006fcf"/>
          <path id="Trazado_15766" data-name="Trazado 15766" d="M26.816,2.1v-.32l.192.32,1.472,2.24H29.5V.624h-.9V3.056L28.416,2.8,27.008.624H25.92V4.4h.9V2.1Zm-3.584-.064.256-.7.256.7.32.832H22.848Zm1.472,2.3h1.024L24.128.56H22.912l-1.6,3.776h.96l.32-.832h1.792Zm-3.968,0h0l.448-.832h-.256a.9.9,0,0,1-.96-1.024h0a.924.924,0,0,1,.96-1.024h.96V.624H20.864A1.7,1.7,0,0,0,19.072,2.48v.064A1.555,1.555,0,0,0,20.736,4.336Zm-3.2,0h.9V.624h-.9V4.336Zm-1.92-2.944a.452.452,0,1,1,0,.9H14.528v-.9Zm-1.024,1.6h.448l1.152,1.344H17.28L16,2.992A1.165,1.165,0,0,0,17.024,1.84,1.194,1.194,0,0,0,15.744.624H13.7V4.4h.9Zm-1.6-1.6V.624H9.984V4.4h3.008V3.568H10.88v-.7h2.048V2.1H10.88v-.7ZM5.5,1.776V.752L6.528,4.336H7.36L8.384.752v3.52h.9V.624H7.68l-.7,2.688L6.208.624h-1.6V4.4h.9V1.776ZM1.92,2.032l.256-.7.256.7.32.832H1.6Zm1.472,2.3H4.416L2.816.624H1.6L0,4.336H.96l.32-.768H3.072Z" transform="translate(0 0.336)" fill="#006fcf"/>
        </g>
      </g>
    </g>
  </g>
</svg>