<svg xmlns="http://www.w3.org/2000/svg" width="60" height="40" viewBox="0 0 60 40">
  <g id="ApplePay" transform="translate(-40 -52)">
    <g id="frame" transform="translate(40 52)">
      <g id="frame-2" data-name="frame" fill="#fff" stroke="#ccc" stroke-width="0.5">
        <rect width="60" height="40" rx="4" stroke="none"/>
        <rect x="0.25" y="0.25" width="59.5" height="39.5" rx="3.75" fill="none"/>
      </g>
    </g>
    <g id="Logo-ApplePay" transform="translate(126.728 57)">
      <rect id="frame-3" data-name="frame" width="46.545" height="32" transform="translate(-80.001 -1)" fill="red" opacity="0"/>
      <g id="ApplePay-2" data-name="ApplePay" transform="translate(-79.987 0.105)">
        <path id="border" d="M42.364,0H3.69c-.134,0-.268,0-.4.006a5.843,5.843,0,0,0-.875.077,2.955,2.955,0,0,0-.832.274A2.8,2.8,0,0,0,.358,1.581a2.941,2.941,0,0,0-.274.832,5.8,5.8,0,0,0-.077.875C0,3.422,0,3.556,0,3.69c0,.159,0,.318,0,.478V25.622c0,.159,0,.318,0,.478,0,.134,0,.268.006.4a5.8,5.8,0,0,0,.077.874,2.941,2.941,0,0,0,.274.832,2.8,2.8,0,0,0,1.223,1.223,2.943,2.943,0,0,0,.832.275,5.888,5.888,0,0,0,.875.077q.2,0,.4.005H42.841q.2,0,.4-.005a5.9,5.9,0,0,0,.875-.077,2.945,2.945,0,0,0,.831-.275,2.8,2.8,0,0,0,1.223-1.223,2.923,2.923,0,0,0,.274-.832,5.8,5.8,0,0,0,.077-.874q.005-.2.006-.4c0-.159,0-.318,0-.478V4.167c0-.159,0-.318,0-.478q0-.2-.006-.4a5.8,5.8,0,0,0-.077-.875,2.923,2.923,0,0,0-.274-.832A2.8,2.8,0,0,0,44.95.358a2.957,2.957,0,0,0-.831-.274,5.859,5.859,0,0,0-.875-.077c-.135,0-.268-.005-.4-.006Z" transform="translate(0)"/>
        <path id="background" d="M44.9,3.532h.47c.127,0,.255,0,.383.006a4.964,4.964,0,0,1,.726.062,1.96,1.96,0,0,1,.558.182,1.8,1.8,0,0,1,.788.789,1.933,1.933,0,0,1,.181.557,4.937,4.937,0,0,1,.062.725c0,.126.005.253.006.382,0,.157,0,.313,0,.47V28.161c0,.157,0,.313,0,.473,0,.126,0,.253-.006.38a4.932,4.932,0,0,1-.062.728,1.927,1.927,0,0,1-.181.555,1.8,1.8,0,0,1-.79.789,1.944,1.944,0,0,1-.554.181,5.049,5.049,0,0,1-.723.062c-.129,0-.257,0-.388.005H6.234c-.128,0-.256,0-.38-.005a5.059,5.059,0,0,1-.726-.062,1.951,1.951,0,0,1-.558-.183,1.8,1.8,0,0,1-.787-.788,1.95,1.95,0,0,1-.182-.558,4.912,4.912,0,0,1-.062-.725c0-.127,0-.254-.006-.381V6.235c0-.127,0-.254.006-.381A4.916,4.916,0,0,1,3.6,5.127a1.946,1.946,0,0,1,.182-.557,1.8,1.8,0,0,1,.788-.788A1.956,1.956,0,0,1,5.127,3.6a4.957,4.957,0,0,1,.727-.062c.127,0,.254,0,.381-.006H44.9" transform="translate(-2.539 -2.539)" fill="#fff"/>
        <path id="Apple_Pay" data-name="Apple Pay" d="M-7427.365,1219.553v-1.292a2.942,2.942,0,0,0,.516.03,1.294,1.294,0,0,0,1.381-1.107c0-.015.141-.472.141-.48l-2.8-7.772h1.728l1.962,6.318h.029l1.963-6.318h1.685l-2.909,8.17c-.664,1.882-1.431,2.487-3.04,2.487A6.149,6.149,0,0,1-7427.365,1219.553Zm-8.041-5.063c0-1.358,1.041-2.192,2.886-2.3l2.127-.126v-.6c0-.864-.585-1.38-1.559-1.38a1.486,1.486,0,0,0-1.639,1.137h-1.5c.088-1.4,1.285-2.436,3.2-2.436,1.882,0,3.084,1,3.084,2.553v5.351h-1.527v-1.277h-.036a2.775,2.775,0,0,1-2.451,1.409A2.354,2.354,0,0,1-7435.406,1214.49Zm3.1-1.2c-.951.066-1.489.487-1.489,1.151s.56,1.122,1.418,1.122a1.862,1.862,0,0,0,1.985-1.779v-.612Zm-21.09,2.028c-.991-1.434-1.745-4.046-.724-5.807a2.805,2.805,0,0,1,2.384-1.448c.753-.014,1.449.5,1.9.5s1.264-.6,2.214-.54a2.72,2.72,0,0,1,2.113,1.15,2.626,2.626,0,0,0-1.247,2.2,2.58,2.58,0,0,0,1.545,2.343,6.332,6.332,0,0,1-.792,1.632c-.484.71-.98,1.406-1.775,1.42-.766.014-1.021-.454-1.9-.454s-1.164.44-1.888.469h-.041C-7452.352,1216.786-7452.921,1216.02-7453.4,1215.322Zm10.061,1.375v-10.65h3.993a3.342,3.342,0,0,1,3.507,3.5,3.381,3.381,0,0,1-3.56,3.513h-2.286v3.639Zm1.654-5.026h1.9a1.994,1.994,0,0,0,2.258-2.119,1.987,1.987,0,0,0-2.251-2.111h-1.9Zm-8.252-3.774a2.437,2.437,0,0,1,.613-1.779,2.576,2.576,0,0,1,1.707-.883,2.6,2.6,0,0,1-.6,1.851,2.2,2.2,0,0,1-1.592.817C-7449.846,1207.9-7449.89,1207.9-7449.934,1207.9Z" transform="translate(7460.917 -1197.067)"/>
      </g>
    </g>
  </g>
</svg>