<svg xmlns="http://www.w3.org/2000/svg" width="60" height="40" viewBox="0 0 60 40">
  <g id="Mastercard" transform="translate(-40 -52)">
    <g id="frame" transform="translate(40 52)">
      <g id="frame-2" data-name="frame" fill="#fff" stroke="#ccc" stroke-width="0.5">
        <rect width="60" height="40" rx="4" stroke="none"/>
        <rect x="0.25" y="0.25" width="59.5" height="39.5" rx="3.75" fill="none"/>
      </g>
    </g>
    <g id="Logo-Mastercard" transform="translate(112 59.527)">
      <rect id="frame-3" data-name="frame" width="40" height="32" transform="translate(-62 -3.527)" fill="#ba0000" opacity="0"/>
      <g id="Mastercard_con_texto" data-name="Mastercard con texto" transform="translate(-62 -3.053)">
        <path id="Mastercard-2" data-name="Mastercard" d="M35.544,21.846a1.028,1.028,0,0,1,1.035-1.1,1.107,1.107,0,0,1,0,2.207A1.027,1.027,0,0,1,35.544,21.846Zm2.687,0V18.911h-.667v1.7a1.324,1.324,0,0,0-1.076-.476,1.711,1.711,0,0,0,0,3.418,1.325,1.325,0,0,0,1.076-.476v.395h.667Zm-9.388,0a1.027,1.027,0,0,1,1.035-1.1,1.107,1.107,0,0,1,0,2.207A1.027,1.027,0,0,1,28.843,21.846Zm2.687,0V20.218h-.667v.395a1.325,1.325,0,0,0-1.076-.476,1.711,1.711,0,0,0,0,3.418,1.326,1.326,0,0,0,1.076-.476v.395h.667Zm7.847,1.383v.08h.075a.075.075,0,0,0,.041-.01.033.033,0,0,0,.015-.03.033.033,0,0,0-.015-.03.075.075,0,0,0-.041-.01Zm.076-.056a.139.139,0,0,1,.091.026.084.084,0,0,1,.032.07.08.08,0,0,1-.025.061.124.124,0,0,1-.072.03l.1.113H39.5l-.093-.112h-.03v.112h-.066v-.3Zm-.019.4a.254.254,0,0,0,.1-.02.261.261,0,0,0,.08-.054.247.247,0,0,0,.075-.178.245.245,0,0,0-.02-.1.254.254,0,0,0-.135-.133.254.254,0,0,0-.1-.02.262.262,0,0,0-.1.02.258.258,0,0,0-.083.053.253.253,0,0,0-.054.08.258.258,0,0,0,0,.2.253.253,0,0,0,.054.08.271.271,0,0,0,.083.054A.262.262,0,0,0,39.434,23.576Zm0-.575a.344.344,0,0,1,.237.095.328.328,0,0,1,.072.1.309.309,0,0,1,.027.125.305.305,0,0,1-.027.125.331.331,0,0,1-.072.1.352.352,0,0,1-.106.07.34.34,0,0,1-.13.026.349.349,0,0,1-.133-.026.339.339,0,0,1-.107-.07.324.324,0,0,1-.071-.1.3.3,0,0,1-.026-.125.309.309,0,0,1,.026-.125.324.324,0,0,1,.179-.172A.343.343,0,0,1,39.434,23Zm-5.348-2.864a1.03,1.03,0,0,0-.9.476v-.395h-.66v3.255h.666V21.641c0-.538.264-.885.736-.885a1.194,1.194,0,0,1,.451.082l.222-.613A1.581,1.581,0,0,0,34.086,20.137ZM8.464,21.846a1.027,1.027,0,0,1,1.035-1.1,1.107,1.107,0,0,1,0,2.207A1.027,1.027,0,0,1,8.464,21.846Zm2.687,0V20.218h-.666v.395a1.325,1.325,0,0,0-1.076-.476,1.711,1.711,0,0,0,0,3.418,1.326,1.326,0,0,0,1.076-.476v.395h.666Zm8.985-1.1a.839.839,0,0,1,.875.824H19.22A.881.881,0,0,1,20.136,20.742Zm.014-.606a1.588,1.588,0,0,0-1.639,1.7A1.616,1.616,0,0,0,20.2,23.555,2.042,2.042,0,0,0,21.56,23.1l-.354-.484a1.6,1.6,0,0,1-.965.34.971.971,0,0,1-1.021-.844H21.7c.007-.088.014-.177.014-.272A1.557,1.557,0,0,0,20.15,20.137Zm4.666,1.709a1.639,1.639,0,0,0,1.743,1.709,1.76,1.76,0,0,0,1.194-.388l-.347-.511a1.479,1.479,0,0,1-.868.293,1.106,1.106,0,0,1,0-2.207,1.479,1.479,0,0,1,.868.293l.347-.511a1.761,1.761,0,0,0-1.194-.388A1.639,1.639,0,0,0,24.816,21.846ZM14.748,20.477a2.517,2.517,0,0,0-1.354-.34c-.84,0-1.354.388-1.354,1.035,0,.531.375.851,1.118.953l.34.048c.4.054.611.19.611.375,0,.252-.292.415-.785.415a1.746,1.746,0,0,1-1.1-.34l-.34.511a2.512,2.512,0,0,0,1.437.422c.958,0,1.486-.436,1.486-1.055,0-.572-.4-.865-1.132-.967l-.34-.048c-.313-.041-.59-.136-.59-.354,0-.238.264-.4.66-.4a2.171,2.171,0,0,1,1.034.279Zm9.311-.34a1.031,1.031,0,0,0-.9.476v-.395H22.5v3.255h.667V21.641c0-.538.264-.885.736-.885a1.193,1.193,0,0,1,.451.082l.222-.613A1.577,1.577,0,0,0,24.06,20.137Zm-6.159.082H16.692v-.988h-.673v.988h-.7v.592h.7v1.539c0,.756.271,1.206,1.125,1.206a1.719,1.719,0,0,0,.9-.252l-.208-.579a1.354,1.354,0,0,1-.639.184c-.361,0-.507-.218-.507-.545V20.81H17.9ZM7.083,23.473v-2.05a1.2,1.2,0,0,0-1.277-1.287,1.293,1.293,0,0,0-1.166.578,1.225,1.225,0,0,0-1.1-.578,1.144,1.144,0,0,0-1,.476v-.395H1.875v3.255h.673V21.607a.788.788,0,0,1,.841-.865c.479,0,.75.306.75.858v1.873h.673V21.607a.8.8,0,0,1,.84-.865c.493,0,.757.306.757.858v1.873Z" transform="translate(0.23 7.405)" fill-rule="evenodd"/>
        <g id="Isotipo" transform="translate(0 0)">
          <path id="Fill-4" d="M10.5,21.509H22.605V2.036H10.5Z" transform="translate(3.711 0.596)" fill="#ff5f00" fill-rule="evenodd"/>
          <path id="Fill-6" d="M15.653,12.529a12.349,12.349,0,0,1,4.721-9.724A12.365,12.365,0,1,0,12.736,24.9a12.3,12.3,0,0,0,7.639-2.644,12.35,12.35,0,0,1-4.721-9.724" transform="translate(-0.375 -0.161)" fill="#eb001b" fill-rule="evenodd"/>
          <path id="Fill-7" d="M29.178,14.737v-.7h-.127l-.146.482-.145-.482h-.127v.7h.089v-.529l.137.456h.093l.136-.458v.531Zm-.8,0v-.582h.162v-.119h-.413v.119h.162v.582Z" transform="translate(10.822 5.438)" fill="#f79e1b" fill-rule="evenodd"/>
          <path id="Fill-8" d="M34.625,12.529a12.359,12.359,0,0,1-20,9.724,12.374,12.374,0,0,0,0-19.448,12.36,12.36,0,0,1,20,9.724" transform="translate(5.375 -0.161)" fill="#f79e1b" fill-rule="evenodd"/>
        </g>
      </g>
    </g>
  </g>
</svg>