<svg xmlns="http://www.w3.org/2000/svg" width="60" height="40" viewBox="0 0 60 40">
  <g id="Visa" transform="translate(-40 -52)">
    <g id="frame" transform="translate(40 52)">
      <g id="frame-2" data-name="frame" fill="#fff" stroke="#ccc" stroke-width="0.5">
        <rect width="60" height="40" rx="4" stroke="none"/>
        <rect x="0.25" y="0.25" width="59.5" height="39.5" rx="3.75" fill="none"/>
      </g>
    </g>
    <g id="Logo-Visa" transform="translate(46.728 56)">
      <rect id="frame-3" data-name="frame" width="46.545" height="32" transform="translate(0 0)" fill="red" opacity="0"/>
      <g id="Visa-2" data-name="Visa" transform="translate(0 1.855)">
        <rect id="box" width="46.545" height="28.988" fill="#fff"/>
        <rect id="fringe" width="46.545" height="4.447" transform="translate(0 24.541)" fill="#fea200"/>
        <rect id="fringe-2" data-name="fringe" width="46.545" height="4.449" fill="#002463"/>
        <path id="VIsa-3" data-name="VIsa" d="M16.712,5.368,11.988,17.6H8.909L6.584,7.839A1.337,1.337,0,0,0,5.89,6.764,11.635,11.635,0,0,0,3.018,5.723l.066-.355H8.046A1.4,1.4,0,0,1,9.39,6.615l1.228,7.075,3.031-8.322ZM28.787,13.6c.013-3.227-4.113-3.4-4.084-4.847.009-.438.395-.906,1.235-1.024a5.1,5.1,0,0,1,2.878.547l.509-2.595A7.315,7.315,0,0,0,26.6,5.145c-2.881,0-4.908,1.662-4.924,4.044-.018,1.759,1.448,2.738,2.549,3.328,1.138.6,1.519.981,1.514,1.519-.007.82-.908,1.181-1.743,1.2a5.764,5.764,0,0,1-3-.772l-.527,2.678a8.27,8.27,0,0,0,3.24.65c3.063,0,5.067-1.643,5.076-4.183M36.4,17.6h2.693L36.737,5.368H34.249a1.325,1.325,0,0,0-1.239.9L28.635,17.6H31.7l.608-1.827h3.739Zm-3.255-4.331,1.535-4.592.883,4.592Zm-12.264-7.9L18.469,17.6H15.554L17.963,5.368Z" transform="translate(1.982 3.024)" fill="#002463"/>
      </g>
    </g>
  </g>
</svg>