<svg xmlns="http://www.w3.org/2000/svg" width="60" height="40" viewBox="0 0 60 40">
  <g id="Diners_Club" data-name="Diners Club" transform="translate(-40 -52)">
    <g id="frame" transform="translate(40 52)">
      <g id="frame-2" data-name="frame" fill="#fff" stroke="#ccc" stroke-width="0.5">
        <rect width="60" height="40" rx="4" stroke="none"/>
        <rect x="0.25" y="0.25" width="59.5" height="39.5" rx="3.75" fill="none"/>
      </g>
    </g>
    <g id="Logo-Diners-Club" transform="translate(-8.593 3.157)">
      <rect id="frame-3" data-name="frame" width="52" height="31.2" transform="translate(52.593 53.243)" fill="red" opacity="0"/>
      <g id="Diners-Club" transform="translate(52.593 54.11)">
        <path id="Text" d="M-2697.048,406.994l-.321.258-.224-.124a13.973,13.973,0,0,0,.15-2v-4.841c0-.732-.163-.755-.569-.878v-.181a6.676,6.676,0,0,0,1.1-.483,1.028,1.028,0,0,1,.236-.125c.065,0,.086.067.086.159v4.109a2.654,2.654,0,0,1,1.6-.811,2.154,2.154,0,0,1,1.99,2.364,2.793,2.793,0,0,1-2.559,2.951A3.054,3.054,0,0,1-2697.048,406.994Zm.461-3.783v2.734a1.186,1.186,0,0,0,1.1,1.15c1.147,0,1.627-1.183,1.627-2.185a2.119,2.119,0,0,0-1.713-2.229A1.623,1.623,0,0,0-2696.587,403.211Zm-3.12,4.144v-.887a3.121,3.121,0,0,1-2.012.92,1.2,1.2,0,0,1-1.25-1.3v-2.809c0-.285-.045-.559-.682-.614v-.208c.41-.01,1.318-.076,1.466-.076.126,0,.126.076.126.318v2.828c0,.33,0,1.273.989,1.273a2.572,2.572,0,0,0,1.374-.667v-2.952c0-.219-.545-.339-.954-.449v-.2c1.022-.067,1.659-.153,1.772-.153.092,0,.092.076.092.2v4.046c0,.2.126.209.317.209.138,0,.307-.011.457-.011v.231a11.982,11.982,0,0,0-1.638.339Zm-5.174.009c-.421,0-.842.012-1.276.023v-.3h.222c.329,0,.563,0,.563-.381v-6.392c0-.746-.175-.769-.62-.895v-.184a7.434,7.434,0,0,0,1.2-.493,1.31,1.31,0,0,1,.257-.127c.072,0,.1.07.1.161v7.93c0,.381.257.381.584.381h.2v.3C-2704.048,407.388-2704.458,407.364-2704.881,407.364Zm-8.794-4.182a4.074,4.074,0,0,1,4.172-3.939,7.81,7.81,0,0,1,2.6.594l.111,1.6h-.274a2.1,2.1,0,0,0-2.358-1.836c-1.267,0-3.106.863-3.106,3.547a3.624,3.624,0,0,0,3.283,3.882,2.249,2.249,0,0,0,2.213-1.936l.253.068-.253,1.631a6.071,6.071,0,0,1-2.433.594A3.949,3.949,0,0,1-2713.675,403.182Zm-6.129,3.846-.136-1.222.222-.053a1.535,1.535,0,0,0,1.554,1.3c.727,0,1-.382,1-.754,0-1.252-2.688-.849-2.688-2.559,0-.594.556-1.359,1.911-1.359a3.679,3.679,0,0,1,1.405.307l.086,1.083h-.283a1.209,1.209,0,0,0-1.344-1.05c-.494,0-.962.244-.962.7,0,1.244,2.86.861,2.86,2.528,0,.7-.654,1.445-2.12,1.445A3.656,3.656,0,0,1-2719.8,407.027Zm-3.211.338c-.451,0-.913.011-1.311.022V407.1h.3c.308,0,.528,0,.528-.364v-3.08c0-.34-.407-.407-.572-.494V403c.8-.341,1.244-.626,1.345-.626.065,0,.1.033.1.142v.988h.025c.273-.429.738-1.13,1.409-1.13a.6.6,0,0,1,.628.582.534.534,0,0,1-.518.559c-.342,0-.342-.265-.729-.265a.93.93,0,0,0-.8.911v2.575c0,.364.22.364.527.364h.617v.285C-2722.078,407.376-2722.538,407.365-2723.014,407.365Zm-5.07-2.292c0-2.081,1.32-2.7,2.02-2.7a1.628,1.628,0,0,1,1.689,1.667,1.4,1.4,0,0,1-.009.192l-.09.063h-2.808a2.59,2.59,0,0,0,0,.616c.058,1.008.669,1.836,1.468,1.836a1.88,1.88,0,0,0,1.35-.71l.14.148a2.33,2.33,0,0,1-1.85,1.2C-2727.765,407.388-2728.084,405.752-2728.084,405.073Zm.829-1.115h1.74c.25,0,.279-.139.279-.265a.878.878,0,0,0-.87-.976C-2726.715,402.717-2727.135,403.193-2727.255,403.958Zm-2.019,3.408c-.406,0-.81.011-1.214.022V407.1h.2c.315,0,.54,0,.54-.362V403.9c0-.627-.391-.933-1.032-.933a3.049,3.049,0,0,0-1.3.527v3.246c0,.362.249.362.563.362h.2v.286c-.393,0-.788-.022-1.191-.022s-.809.011-1.214.022V407.1h.2c.313,0,.537,0,.537-.362v-2.906c0-.406-.123-.516-.649-.723V402.9c.482-.154.941-.3,1.481-.526.034,0,.066.022.066.109v.713a3.335,3.335,0,0,1,1.946-.821c.953,0,1.291.679,1.291,1.535v2.829c0,.362.246.362.56.362h.2v.286C-2728.478,407.388-2728.872,407.365-2729.274,407.365Zm-6.3,0c-.423,0-.844.012-1.277.023v-.3h.222c.327,0,.561,0,.561-.38V403.6c0-.5-.174-.576-.608-.8v-.183c.551-.162,1.208-.379,1.254-.414a.424.424,0,0,1,.211-.057c.057,0,.081.069.081.161v4.41c0,.38.258.38.586.38h.2v.3C-2734.749,407.388-2735.158,407.364-2735.578,407.364Zm-7.964,0c-.49,0-.968.01-1.457.02v-.278c.651-.066.968-.087,1-.819v-5.226c0-.969-.51-.9-1-.914v-.28c.423.021.858.021,1.284.021.455,0,1.076-.021,1.883-.021,2.817,0,4.351,1.862,4.351,3.77,0,1.067-.63,3.748-4.482,3.748C-2742.518,407.388-2743.031,407.368-2743.543,407.368Zm.608-7.109v5.859c0,.829.6.926,1.133.926,2.351,0,3.123-1.756,3.123-3.361a3.253,3.253,0,0,0-3.407-3.468C-2742.531,400.215-2742.737,400.246-2742.935,400.258Zm6.759-.462a.592.592,0,0,1,.574-.553.569.569,0,0,1,.574.553.58.58,0,0,1-.574.574A.6.6,0,0,1-2736.176,399.8Z" transform="translate(2745 -377.678)" fill="#4a4a4a"/>
        <g id="Logo" transform="translate(13.157)">
          <path id="Fill-1" d="M15.3,21.259c5.656.027,10.82-4.668,10.82-10.379A10.623,10.623,0,0,0,15.3.321H10.437A10.266,10.266,0,0,0,0,10.88,10.428,10.428,0,0,0,10.437,21.259Z" transform="translate(0 -0.321)" fill="#004a98" fill-rule="evenodd"/>
          <path id="Fill-4" d="M12.635,16.065V4.945a5.953,5.953,0,0,1,0,11.12M4.548,10.5A5.964,5.964,0,0,1,8.371,4.946V16.063A5.962,5.962,0,0,1,4.548,10.5m5.956-9.4a9.4,9.4,0,1,0,9.4,9.4,9.4,9.4,0,0,0-9.4-9.4" transform="translate(0.146 -0.217)" fill="#fefefe" fill-rule="evenodd"/>
        </g>
      </g>
    </g>
  </g>
</svg>
