<svg xmlns="http://www.w3.org/2000/svg" width="60" height="40" viewBox="0 0 60 40">
  <g id="GPay" transform="translate(-40 -52)">
    <g id="frame" transform="translate(40 52)">
      <g id="frame-2" data-name="frame" fill="#fff" stroke="#ccc" stroke-width="0.5">
        <rect width="60" height="40" rx="4" stroke="none"/>
        <rect x="0.25" y="0.25" width="59.5" height="39.5" rx="3.75" fill="none"/>
      </g>
    </g>
    <g id="Logo-GPay" transform="translate(134 64.6)">
      <rect id="frame-3" data-name="frame" width="52" height="20.8" transform="translate(-90 -3)" fill="red" opacity="0"/>
      <g id="GPay-2" data-name="GPay" transform="translate(-90 -2.913)">
        <path id="Pay" d="M-7818.673,1247.433l2.38-5.15-4.217-9.57h2.089l3.047,7.339h.04l2.965-7.339h2.087l-6.409,14.72Zm-10.071-5.17a3.2,3.2,0,0,1-1.139-2.5,3.037,3.037,0,0,1,1.2-2.521,5.073,5.073,0,0,1,3.206-.938,5.687,5.687,0,0,1,2.818.625v-.438a2.186,2.186,0,0,0-.794-1.7,2.725,2.725,0,0,0-1.859-.7,2.936,2.936,0,0,0-2.543,1.356l-1.693-1.064a4.717,4.717,0,0,1,4.134-2,4.758,4.758,0,0,1,3.36,1.136,4.021,4.021,0,0,1,1.232,3.117v6.3h-1.837v-1.418h-.083a3.666,3.666,0,0,1-3.173,1.751A4.124,4.124,0,0,1-7828.744,1242.262Zm1.628-3.856a1.668,1.668,0,0,0-.782,1.395,1.532,1.532,0,0,0,.637,1.252,2.347,2.347,0,0,0,1.492.5,3.059,3.059,0,0,0,2.158-.9,2.806,2.806,0,0,0,.952-2.1,3.95,3.95,0,0,0-2.5-.709A3.255,3.255,0,0,0-7827.116,1238.406Zm-12.492,4.523V1228h5.094a4.6,4.6,0,0,1,3.3,1.293,4.154,4.154,0,0,1,1.38,3.148,4.135,4.135,0,0,1-1.38,3.169,4.6,4.6,0,0,1-3.3,1.272h-3.174v6.047Zm1.92-13.095v5.213h3.216a2.54,2.54,0,0,0,1.9-.772,2.507,2.507,0,0,0,.774-1.835,2.486,2.486,0,0,0-.774-1.814,2.507,2.507,0,0,0-1.9-.793h-3.216Z" transform="translate(7862.282 -1226.806)" fill="#5f6368" stroke="rgba(0,0,0,0)" stroke-width="1"/>
        <g id="G">
          <path id="blue" d="M67.112,49.927a10.208,10.208,0,0,0-.148-1.745h-8.1v3.3H63.5a3.969,3.969,0,0,1-1.715,2.607v2.146h2.768a8.387,8.387,0,0,0,2.555-6.312" transform="translate(-50.277 -41.153)" fill="#4285f4"/>
          <path id="green" d="M13.941,76.992a8.221,8.221,0,0,0,5.692-2.072l-2.768-2.146a5.209,5.209,0,0,1-7.745-2.72H6.268v2.21a8.589,8.589,0,0,0,7.673,4.728" transform="translate(-5.354 -59.835)" fill="#34a853"/>
          <path id="yellow" d="M3.766,37.891a5.14,5.14,0,0,1,0-3.284V32.4H.914a8.57,8.57,0,0,0,0,7.7Z" transform="translate(0 -27.671)" fill="#fabb05"/>
          <path id="red" d="M13.941,3.4a4.664,4.664,0,0,1,3.295,1.287h0l2.451-2.449A8.256,8.256,0,0,0,13.941,0,8.588,8.588,0,0,0,6.268,4.726L9.12,6.936A5.136,5.136,0,0,1,13.941,3.4" transform="translate(-5.354 0)" fill="#e94235"/>
        </g>
      </g>
    </g>
  </g>
</svg>
