<svg xmlns="http://www.w3.org/2000/svg" width="60" height="40" viewBox="0 0 60 40">
  <g id="PayPal" transform="translate(-40 -52)">
    <g id="frame" transform="translate(40 52)">
      <g id="frame-2" data-name="frame" fill="#fff" stroke="#ccc" stroke-width="0.5">
        <rect width="60" height="40" rx="4" stroke="none"/>
        <rect x="0.25" y="0.25" width="59.5" height="39.5" rx="3.75" fill="none"/>
      </g>
    </g>
    <g id="Logo-PayPal" transform="translate(54.003 54)">
      <rect id="frame-3" data-name="frame" width="32" height="32" transform="translate(-0.002 2)" fill="red" opacity="0"/>
      <g id="PayPal-2" data-name="PayPal" transform="translate(-0.002 2.164)">
        <path id="Pal" d="M-7493.3,1199.658a2.25,2.25,0,0,1-.442-1.831,2.74,2.74,0,0,1,2.659-2.4,1.693,1.693,0,0,1,1.407.5l.084.121.054-.334a.207.207,0,0,1,.2-.175h1.19a.208.208,0,0,1,.206.24l-.646,4.081a.345.345,0,0,1-.342.292H-7490a.208.208,0,0,1-.205-.24l.055-.331a2.287,2.287,0,0,1-1.652.682A1.865,1.865,0,0,1-7493.3,1199.658Zm1.163-1.817a1.023,1.023,0,0,0,.187.837,1.008,1.008,0,0,0,.8.321,1.33,1.33,0,0,0,1.346-1.138,1.033,1.033,0,0,0-.2-.843,1.006,1.006,0,0,0-.8-.324A1.334,1.334,0,0,0-7492.137,1197.841Zm4.583,2.313a.209.209,0,0,1-.207-.24l1.022-6.5a.207.207,0,0,1,.2-.175h1.152a.208.208,0,0,1,.2.24l-1.007,6.383a.35.35,0,0,1-.343.292Zm-11.661,0a.208.208,0,0,1-.205-.24l1.008-6.383a.344.344,0,0,1,.342-.292h2.487a2.307,2.307,0,0,1,1.814.636,1.916,1.916,0,0,1,.318,1.606,2.558,2.558,0,0,1-2.834,2.366h-.786a.345.345,0,0,0-.342.292l-.287,1.809a.241.241,0,0,1-.237.2Zm2.329-5.358-.262,1.668h.375c.658,0,1.343,0,1.478-.893a.829.829,0,0,0-.122-.694c-.219-.255-.643-.255-1.09-.255h-.173A.208.208,0,0,0-7496.886,1194.8Z" transform="translate(7517.176 -1170.093)" fill="#008ad8" stroke="rgba(0,0,0,0)" stroke-width="1"/>
        <path id="Pay" d="M-7487.09,1201.766a.206.206,0,0,1-.167-.327l1.238-1.751-1.316-3.872a.206.206,0,0,1,.2-.275h1.179a.346.346,0,0,1,.33.247l.7,2.339,1.651-2.434a.345.345,0,0,1,.287-.152h1.2a.208.208,0,0,1,.17.326l-3.983,5.75a.345.345,0,0,1-.286.148Zm-6.21-2.108a2.247,2.247,0,0,1-.441-1.831,2.739,2.739,0,0,1,2.658-2.4,1.7,1.7,0,0,1,1.408.5l.084.121.053-.333a.207.207,0,0,1,.2-.175h1.19a.209.209,0,0,1,.207.24l-.646,4.08a.345.345,0,0,1-.342.292H-7490a.208.208,0,0,1-.205-.24l.054-.331a2.288,2.288,0,0,1-1.652.682A1.868,1.868,0,0,1-7493.3,1199.658Zm1.164-1.817a1.019,1.019,0,0,0,.187.837,1.009,1.009,0,0,0,.8.321,1.329,1.329,0,0,0,1.345-1.138,1.029,1.029,0,0,0-.2-.843,1,1,0,0,0-.795-.324A1.333,1.333,0,0,0-7492.136,1197.841Zm-7.079,2.313a.208.208,0,0,1-.205-.24l1.008-6.383a.344.344,0,0,1,.342-.292h2.487a2.307,2.307,0,0,1,1.814.636,1.916,1.916,0,0,1,.318,1.606,2.558,2.558,0,0,1-2.834,2.366h-.786a.345.345,0,0,0-.342.293l-.272,1.722a.346.346,0,0,1-.342.292Zm2.329-5.358-.262,1.668h.375c.658,0,1.343,0,1.478-.893a.831.831,0,0,0-.122-.694c-.219-.255-.643-.255-1.09-.255h-.173A.211.211,0,0,0-7496.886,1194.8Z" transform="translate(7499.423 -1170.093)" fill="#002575" stroke="rgba(0,0,0,0)" stroke-width="1"/>
        <g id="Isotipo" transform="translate(7.989)">
          <path id="trazado" d="M84.857,5.247a4.1,4.1,0,0,0-.871-3.69C83.03.467,81.3,0,79.09,0H72.672a.918.918,0,0,0-.907.775L69.092,17.724a.551.551,0,0,0,.544.637H73.6L73.325,20.1a.482.482,0,0,0,.476.557h3.34a.8.8,0,0,0,.794-.678l.033-.17.629-3.99.041-.22a.8.8,0,0,1,.793-.678h.5c3.236,0,5.77-1.315,6.51-5.117a4.356,4.356,0,0,0-.669-3.847,3.181,3.181,0,0,0-.914-.705" transform="translate(-69.085)" fill="#008ad8"/>
          <path id="trazado-2" data-name="trazado" d="M84.857,5.247a4.1,4.1,0,0,0-.871-3.69C83.03.467,81.3,0,79.09,0H72.672a.918.918,0,0,0-.907.775L69.092,17.724a.551.551,0,0,0,.544.637H73.6l1-6.312-.031.2a.915.915,0,0,1,.9-.775H77.35c3.7,0,6.6-1.5,7.441-5.849.025-.129.046-.253.066-.376" transform="translate(-69.085)" fill="#001a57"/>
          <path id="trazado-3" data-name="trazado" d="M75.663,5.268a.8.8,0,0,1,.794-.678h5.031a10.489,10.489,0,0,1,1.66.121q.218.035.424.081t.4.1q.1.028.19.059a4.528,4.528,0,0,1,.7.294,4.1,4.1,0,0,0-.871-3.69C83.03.467,81.3,0,79.09,0H72.672a.918.918,0,0,0-.907.775L69.092,17.724a.551.551,0,0,0,.544.637H73.6l1-6.312Z" transform="translate(-69.085)" fill="#002575"/>
        </g>
      </g>
    </g>
  </g>
</svg>
